<?xml version="1.0" encoding="UTF-8" standalone="no"?>
<!-- Created with Inkscape (http://www.inkscape.org/) -->

<svg
   xmlns:dc="http://purl.org/dc/elements/1.1/"
   xmlns:cc="http://creativecommons.org/ns#"
   xmlns:rdf="http://www.w3.org/1999/02/22-rdf-syntax-ns#"
   xmlns:svg="http://www.w3.org/2000/svg"
   xmlns="http://www.w3.org/2000/svg"
   xmlns:sodipodi="http://sodipodi.sourceforge.net/DTD/sodipodi-0.dtd"
   xmlns:inkscape="http://www.inkscape.org/namespaces/inkscape"
   width="300"
   height="200"
   id="svg2"
   version="1.1"
   inkscape:version="0.48.4 r9939"
   sodipodi:docname="equilibrator_logo.svg"
   inkscape:export-filename="/home/eladn/Dropbox/Pictures/equilibrator_logo.png"
   inkscape:export-xdpi="300"
   inkscape:export-ydpi="300">
  <defs
     id="defs4" />
  <sodipodi:namedview
     id="base"
     pagecolor="#ffffff"
     bordercolor="#666666"
     borderopacity="1.0"
     inkscape:pageopacity="0.0"
     inkscape:pageshadow="2"
     inkscape:zoom="1"
     inkscape:cx="150.5645"
     inkscape:cy="102.27725"
     inkscape:document-units="px"
     inkscape:current-layer="layer1"
     showgrid="false"
     inkscape:window-width="1855"
     inkscape:window-height="1056"
     inkscape:window-x="65"
     inkscape:window-y="24"
     inkscape:window-maximized="1"
     units="cm"
     fit-margin-top="0"
     fit-margin-left="0"
     fit-margin-right="0"
     fit-margin-bottom="0">
    <inkscape:grid
       type="xygrid"
       id="grid3757"
       empspacing="5"
       visible="true"
       enabled="true"
       snapvisiblegridlinesonly="true" />
  </sodipodi:namedview>
  <metadata
     id="metadata7">
    <rdf:RDF>
      <cc:Work
         rdf:about="">
        <dc:format>image/svg+xml</dc:format>
        <dc:type
           rdf:resource="http://purl.org/dc/dcmitype/StillImage" />
        <dc:title></dc:title>
      </cc:Work>
    </rdf:RDF>
  </metadata>
  <g
     inkscape:label="Layer 1"
     inkscape:groupmode="layer"
     id="layer1"
     transform="translate(36.502792,-865.60914)">
    <path
       sodipodi:type="star"
       style="fill:none;stroke:#000000;stroke-width:8.18794346;stroke-linecap:butt;stroke-linejoin:miter;stroke-miterlimit:3.97728157;stroke-opacity:1;stroke-dasharray:none;stroke-dashoffset:0"
       id="path2985"
       sodipodi:sides="6"
       sodipodi:cx="80"
       sodipodi:cy="392.36218"
       sodipodi:r1="125.84409"
       sodipodi:r2="108.98418"
       sodipodi:arg1="1.5707963"
       sodipodi:arg2="2.0943951"
       inkscape:flatsided="true"
       inkscape:rounded="0"
       inkscape:randomized="0"
       d="m 80.000003,518.20628 -108.984183,-62.92205 -3e-6,-125.84409 108.98418,-62.92205 108.984183,62.92204 0,125.8441 z"
       transform="matrix(0.21875873,0,0,0.21875873,43.915762,827.5556)" />
    <path
       transform="matrix(0.21875873,0,0,0.21875873,132.60259,843.55832)"
       d="m 80.000003,518.20628 -108.984183,-62.92205 -3e-6,-125.84409 108.98418,-62.92205 108.984183,62.92204 0,125.8441 z"
       inkscape:randomized="0"
       inkscape:rounded="0"
       inkscape:flatsided="true"
       sodipodi:arg2="2.0943951"
       sodipodi:arg1="1.5707963"
       sodipodi:r2="108.98418"
       sodipodi:r1="125.84409"
       sodipodi:cy="392.36218"
       sodipodi:cx="80"
       sodipodi:sides="6"
       id="path3755"
       style="fill:none;stroke:#000000;stroke-width:8.18794346;stroke-linecap:butt;stroke-linejoin:miter;stroke-miterlimit:3.97728157;stroke-opacity:1;stroke-dasharray:none;stroke-dashoffset:0"
       sodipodi:type="star" />
    <path
       style="fill:none;stroke:#000000;stroke-width:1.79118419;stroke-linecap:butt;stroke-linejoin:miter;stroke-miterlimit:3.97728157;stroke-opacity:1;stroke-dasharray:none;stroke-dashoffset:0"
       d="m 61.050168,885.77963 c 22.280727,-4.75878 69.890372,4.53151 88.826982,16.00113"
       id="path3905"
       inkscape:connector-curvature="0"
       sodipodi:nodetypes="cc" />
    <path
       style="fill:none;stroke:#000000;stroke-width:3.58236837;stroke-linecap:butt;stroke-linejoin:miter;stroke-miterlimit:3.97728157;stroke-opacity:1;stroke-dasharray:none;stroke-dashoffset:0"
       d="m 106.09218,887.46018 0,88.39257"
       id="path3907"
       inkscape:connector-curvature="0" />
    <path
       style="fill:none;stroke:#000000;stroke-width:3.58236837;stroke-linecap:butt;stroke-linejoin:miter;stroke-miterlimit:3.97728157;stroke-opacity:1;stroke-dasharray:none;stroke-dashoffset:0"
       d="m 77.698482,976.3188 57.012398,0"
       id="path3909"
       inkscape:connector-curvature="0" />
    <path
       sodipodi:type="arc"
       style="fill:#f4d7d7;stroke:#000000;stroke-width:4.00084972;stroke-linecap:butt;stroke-linejoin:miter;stroke-miterlimit:3.97728157;stroke-opacity:1;stroke-dasharray:none;stroke-dashoffset:0"
       id="path3911"
       sodipodi:cx="145.95699"
       sodipodi:cy="532.31372"
       sodipodi:rx="41.702"
       sodipodi:ry="40.475468"
       d="m 187.65899,532.31372 c 0,22.35398 -18.67063,40.47547 -41.702,40.47547 -23.03138,0 -41.702,-18.12149 -41.702,-40.47547 0,-22.35398 18.67062,-40.47547 41.702,-40.47547 23.03137,0 41.702,18.12149 41.702,40.47547 z"
       transform="matrix(0.44770094,0,0,0.44770094,-3.811329,675.20183)" />
    <path
       style="fill:none;stroke:#000000;stroke-width:1.79118419;stroke-linecap:butt;stroke-linejoin:miter;stroke-miterlimit:3.97728157;stroke-opacity:1;stroke-dasharray:none;stroke-dashoffset:0"
       d="m 174.03351,943.19462 6.44534,3.77533"
       id="path3915"
       inkscape:connector-curvature="0" />
    <text
       xml:space="preserve"
       style="font-size:4.29884195px;font-style:normal;font-variant:normal;font-weight:normal;font-stretch:normal;text-align:center;line-height:125%;letter-spacing:0px;word-spacing:0px;writing-mode:lr-tb;text-anchor:middle;fill:#000000;fill-opacity:1;stroke:none;font-family:Droid Sans;-inkscape-font-specification:Droid Sans"
       x="188.82269"
       y="952.96332"
       id="text3917"
       sodipodi:linespacing="125%"><tspan
         sodipodi:role="line"
         id="tspan3919"
         x="188.82269"
         y="952.96332"
         style="font-size:10.7471056px;font-style:normal;font-variant:normal;font-weight:normal;font-stretch:normal;font-family:Trebuchet MS;-inkscape-font-specification:Trebuchet MS">OH</tspan></text>
    <path
       transform="matrix(0.44770094,0,0,0.44770094,85.053839,691.33047)"
       d="m 187.65899,532.31372 c 0,22.35398 -18.67063,40.47547 -41.702,40.47547 -23.03138,0 -41.702,-18.12149 -41.702,-40.47547 0,-22.35398 18.67062,-40.47547 41.702,-40.47547 23.03137,0 41.702,18.12149 41.702,40.47547 z"
       sodipodi:ry="40.475468"
       sodipodi:rx="41.702"
       sodipodi:cy="532.31372"
       sodipodi:cx="145.95699"
       id="path3925"
       style="fill:#d5e5ff;stroke:#000000;stroke-width:4.00084972;stroke-linecap:butt;stroke-linejoin:miter;stroke-miterlimit:3.97728157;stroke-opacity:1;stroke-dasharray:none;stroke-dashoffset:0"
       sodipodi:type="arc" />
    <text
       xml:space="preserve"
       style="font-size:19.83879471px;font-style:normal;font-variant:normal;font-weight:normal;font-stretch:normal;text-align:center;line-height:125%;letter-spacing:0px;word-spacing:0px;writing-mode:lr-tb;text-anchor:middle;fill:#000000;fill-opacity:1;stroke:none;font-family:Droid Sans;-inkscape-font-specification:Droid Sans"
       x="113.48902"
       y="1014.5967"
       id="text3001"
       sodipodi:linespacing="125%"><tspan
         sodipodi:role="line"
         id="tspan3003"
         x="113.48902"
         y="1014.5967"
         style="font-size:36.37112427px;font-style:normal;font-variant:normal;font-weight:normal;font-stretch:normal;font-family:Ubuntu;-inkscape-font-specification:Ubuntu">eQuilibrator</tspan><tspan
         sodipodi:role="line"
         x="113.48902"
         y="1039.9456"
         style="font-size:16.53232765px;font-style:normal;font-variant:normal;font-weight:normal;font-stretch:normal;fill:#4d4d4d;font-family:Ubuntu;-inkscape-font-specification:Ubuntu"
         id="tspan3005">biochemical thermodynamics calculator</tspan></text>
    <g
       id="g3017"
       transform="matrix(0.97780376,0.2095228,-0.2095228,0.97780376,211.20886,-13.835403)"
       style="stroke-width:2;stroke-miterlimit:4;stroke-dasharray:none;stroke:#2d7dff;stroke-opacity:1">
      <path
         sodipodi:nodetypes="cccccccccc"
         inkscape:connector-curvature="0"
         id="path2996"
         d="m 218.11172,981.01408 c 0.0577,-1.20678 0.92633,-2.46872 2.2004,-2.57845 1.12556,-0.26277 2.3803,-0.30697 3.44503,0.18697 0.70812,0.53849 1.63016,1.08435 1.75136,2.05065 0.0451,1.22181 -0.66481,2.29162 -0.92478,3.45029 -0.36761,0.73774 -0.56638,1.55486 -1.01362,2.25294 -0.68783,1.63992 -2.36771,3.2705 -3.35788,4.74284 -0.11461,0.71185 1.73094,0.1822 2.1451,0.18147 0.57052,0.027 1.09039,-0.22207 1.63524,-0.37162 1.37944,-0.39937 2.76147,-0.83862 4.18896,-1.02858"
         style="fill:none;stroke:#2d7dff;stroke-width:2;stroke-linecap:butt;stroke-linejoin:miter;stroke-miterlimit:4;stroke-opacity:1;stroke-dasharray:none" />
      <path
         sodipodi:nodetypes="ccccccccccc"
         inkscape:connector-curvature="0"
         id="path3000"
         d="m 236.6104,976.54888 c -0.85953,-0.19878 -1.62264,0.49257 -1.90329,1.25369 -0.27682,0.56948 -0.22863,1.21629 -0.46083,1.79708 -0.36213,1.24534 -0.41724,2.55154 -0.43322,3.83898 -0.21443,1.54079 0.38383,3.11694 1.36367,4.29212 0.6939,0.74387 1.67336,1.49966 2.75477,1.26122 0.74867,-0.2426 1.33844,-0.83293 1.84872,-1.41193 0.46976,-0.54494 0.73942,-1.22004 0.93046,-1.90301 0.67674,-1.64836 1.00499,-3.49376 0.57801,-5.25015 -0.26014,-1.06659 -0.78225,-2.13658 -1.67652,-2.80655 -0.65481,-0.83919 -1.62266,-0.86237 -3.00177,-1.07145 z"
         style="fill:none;stroke:#2d7dff;stroke-width:2;stroke-linecap:butt;stroke-linejoin:miter;stroke-miterlimit:4;stroke-opacity:1;stroke-dasharray:none" />
      <path
         sodipodi:nodetypes="cc"
         inkscape:connector-curvature="0"
         id="path3004"
         d="m 231.29733,990.39426 c -2.15373,-0.66425 0.62532,-2.79806 0.28635,-0.38386"
         style="fill:none;stroke:#2d7dff;stroke-width:2;stroke-linecap:butt;stroke-linejoin:miter;stroke-miterlimit:4;stroke-opacity:1;stroke-dasharray:none" />
    </g>
  </g>
</svg>
